<svg width="15" height="15" viewBox="0 0 15 15" fill="none" xmlns="http://www.w3.org/2000/svg">
<path d="M13.9029 0.317383H2.01574C1.44678 0.317383 0.985352 0.767809 0.985352 1.32294V13.3493C0.985352 13.9041 1.44678 14.3545 2.01574 14.3545H13.9029C14.4727 14.3545 14.9342 13.9038 14.9342 13.3493V1.32294C14.9342 0.767526 14.4724 0.317383 13.9029 0.317383ZM5.21332 12.0683H3.10653V5.72983H5.21332V12.0683ZM4.16006 4.86398H4.14595C3.43927 4.86398 2.98207 4.37714 2.98207 3.76895C2.98207 3.14722 3.45338 2.67393 4.17389 2.67393C4.89469 2.67393 5.33806 3.14722 5.35217 3.76895C5.35217 4.37714 4.89441 4.86398 4.16006 4.86398ZM12.8104 12.0683H10.7037V8.67651C10.7037 7.82476 10.3989 7.24339 9.63658 7.24339C9.05464 7.24339 8.70807 7.63539 8.55539 8.01413C8.49979 8.14932 8.48624 8.33841 8.48624 8.52806V12.068H6.37946C6.37946 12.068 6.40711 6.32363 6.37946 5.72955H8.48624V6.62673C8.76621 6.19493 9.26687 5.57997 10.3853 5.57997C11.7713 5.57997 12.8107 6.48619 12.8107 8.43323L12.8104 12.0683Z" fill="#FEFEFE"/>
</svg>
