<svg width="14" height="14" viewBox="0 0 14 14" fill="none" xmlns="http://www.w3.org/2000/svg">
<path d="M9.75 0.75H4.25C3.32174 0.75 2.4315 1.11875 1.77513 1.77513C1.11875 2.4315 0.75 3.32174 0.75 4.25V9.75C0.75 10.6783 1.11875 11.5685 1.77513 12.2249C2.4315 12.8813 3.32174 13.25 4.25 13.25H9.75C10.6783 13.25 11.5685 12.8813 12.2249 12.2249C12.8813 11.5685 13.25 10.6783 13.25 9.75V4.25C13.25 3.32174 12.8813 2.4315 12.2249 1.77513C11.5685 1.11875 10.6783 0.75 9.75 0.75ZM7 10C6.40666 10 5.82664 9.82405 5.33329 9.49441C4.83994 9.16476 4.45542 8.69623 4.22836 8.14805C4.0013 7.59987 3.94189 6.99667 4.05764 6.41473C4.1734 5.83279 4.45912 5.29824 4.87868 4.87868C5.29824 4.45912 5.83279 4.1734 6.41473 4.05764C6.99667 3.94189 7.59987 4.0013 8.14805 4.22836C8.69623 4.45542 9.16476 4.83994 9.49441 5.33329C9.82405 5.82664 10 6.40666 10 7C10 7.79565 9.68393 8.55871 9.12132 9.12132C8.55871 9.68393 7.79565 10 7 10ZM10.25 4.5C10.1017 4.5 9.95666 4.45601 9.83332 4.3736C9.70998 4.29119 9.61386 4.17406 9.55709 4.03701C9.50032 3.89997 9.48547 3.74917 9.51441 3.60368C9.54335 3.4582 9.61478 3.32456 9.71967 3.21967C9.82456 3.11478 9.9582 3.04335 10.1037 3.01441C10.2492 2.98547 10.4 3.00032 10.537 3.05709C10.6741 3.11386 10.7912 3.20999 10.8736 3.33332C10.956 3.45666 11 3.60166 11 3.75C11 3.94891 10.921 4.13968 10.7803 4.28033C10.6397 4.42098 10.4489 4.5 10.25 4.5Z" fill="#FEFEFE"/>
</svg>
