<svg width="674" height="509" viewBox="0 0 674 509" fill="none" xmlns="http://www.w3.org/2000/svg">
<path opacity="0.25" d="M655.72 142.531H631.286C636.634 139.475 640.246 133.726 640.246 127.125C640.246 117.324 632.299 109.378 622.498 109.378H535.7C489.733 43.2782 413.24 0 326.626 0C269.965 0 217.637 18.525 175.346 49.8384H100.486C90.6844 49.8384 82.7383 57.7845 82.7383 67.5857C82.7383 73.0965 85.2503 78.02 89.1923 81.2758H46.1399C36.3387 81.2758 28.3926 89.2203 28.3926 99.0215C28.3926 108.823 36.3387 116.769 46.1399 116.769H112.591C98.5611 138.524 87.771 162.562 80.8729 188.195H34.9853C25.1841 188.195 17.2381 196.141 17.2381 205.942C17.2381 215.743 25.1826 223.689 34.9853 223.689H73.9909C72.7719 233.791 72.1298 244.071 72.1298 254.501C72.1298 271.751 73.8551 288.598 77.1271 304.884H17.7458C7.94457 304.884 0 312.828 0 322.631C0 332.432 7.94605 340.377 17.7458 340.377H42.1802C36.8316 343.433 33.2202 349.182 33.2202 355.783C33.2202 365.585 41.1662 373.531 50.966 373.531H101.643C144.36 454.105 229.076 509 326.628 509C400.877 509 467.691 477.197 514.213 426.479H599.434C609.235 426.479 617.181 418.534 617.181 408.733C617.181 398.932 609.235 390.986 599.434 390.986H575.001C580.349 387.929 583.961 382.181 583.961 375.579C583.961 365.778 576.015 357.832 566.213 357.832H559.258C570.443 332.688 577.665 305.394 580.147 276.743H638.724C648.525 276.743 656.471 268.797 656.471 258.996C656.471 249.195 648.525 241.249 638.724 241.249H580.784C579.66 219.325 575.755 198.138 569.425 178.024H655.719C665.52 178.024 673.466 170.08 673.466 160.279C673.466 150.477 665.521 142.531 655.72 142.531Z" fill="white"/>
<path opacity="0.96" d="M496.108 205.42C496.306 199.977 495.439 194.655 493.664 189.699L501.988 183.633L497.99 177.062L493.992 170.492L484.778 175.095C481.193 171.24 476.864 168.023 471.939 165.697L473.535 155.528L466.062 153.708L458.59 151.889L455.333 161.653C449.89 161.455 444.568 162.322 439.612 164.097L433.546 155.773L426.976 159.771L420.405 163.768L425.008 172.982C421.153 176.567 417.936 180.895 415.61 185.82L405.441 184.225L403.621 191.697L401.802 199.169L411.566 202.427C411.368 207.87 412.235 213.192 414.01 218.148L405.686 224.213L409.683 230.784L413.681 237.354L422.895 232.751C426.48 236.606 430.808 239.824 435.733 242.149L434.138 252.318L441.61 254.138L449.083 255.958L452.34 246.193C457.783 246.391 463.105 245.525 468.061 243.749L474.126 252.073L480.697 248.077L487.268 244.078L482.664 234.865C486.519 231.28 489.737 226.951 492.063 222.026L502.231 223.621L504.051 216.149L505.871 208.677L496.108 205.42ZM447.911 228.266C434.467 224.993 426.221 211.44 429.495 197.996C432.768 184.552 446.321 176.307 459.765 179.58C473.208 182.854 481.454 196.407 478.181 209.85C474.907 223.294 461.354 231.54 447.911 228.266Z" fill="#8E9298"/>
<path opacity="0.96" d="M257.149 80.4513C257.3 76.3263 256.643 72.2928 255.297 68.5367L261.606 63.9394L258.576 58.9598L255.547 53.9803L248.563 57.4692C245.846 54.547 242.565 52.1089 238.832 50.3467L240.041 42.6397L234.378 41.2613L228.715 39.8828L226.246 47.2828C222.121 47.1322 218.088 47.789 214.332 49.135L209.734 42.8257L204.755 45.8556L199.775 48.8856L203.264 55.8694C200.342 58.5864 197.904 61.8673 196.142 65.5997L188.435 64.391L187.056 70.0539L185.678 75.7182L193.078 78.1874C192.927 82.3124 193.584 86.3459 194.93 90.102L188.621 94.6993L191.651 99.6789L194.68 104.658L201.664 101.169C204.381 104.092 207.662 106.53 211.395 108.292L210.184 115.999L215.849 117.377L221.512 118.756L223.981 111.356C228.106 111.506 232.139 110.85 235.895 109.504L240.493 115.813L245.472 112.783L250.452 109.753L246.963 102.771C249.885 100.054 252.323 96.7729 254.085 93.0404L261.792 94.2506L263.171 88.5863L264.549 82.9234L257.149 80.4513ZM220.62 97.7662C210.431 95.2852 204.182 85.0132 206.663 74.8239C209.144 64.6345 219.414 58.3857 229.605 60.8666C239.795 63.3476 246.043 73.6196 243.563 83.8089C241.082 93.9983 230.81 100.247 220.62 97.7662Z" fill="#8E9298"/>
<path opacity="0.96" d="M252.939 419.223C253.089 415.098 252.433 411.064 251.087 407.308L257.396 402.711L254.366 397.731L251.336 392.752L244.352 396.241C241.635 393.318 238.354 390.88 234.622 389.118L235.831 381.411L230.168 380.033L224.503 378.654L222.034 386.054C217.909 385.904 213.876 386.561 210.12 387.906L205.522 381.597L200.543 384.627L195.563 387.657L199.052 394.641C196.13 397.358 193.692 400.639 191.93 404.371L184.223 403.162L182.844 408.825L181.466 414.49L188.866 416.959C188.715 421.084 189.372 425.117 190.718 428.873L184.409 433.471L187.439 438.45L190.469 443.43L197.452 439.941C200.169 442.863 203.45 445.301 207.183 447.063L205.973 454.77L211.635 456.149L217.3 457.527L219.769 450.127C223.894 450.278 227.927 449.621 231.684 448.275L236.281 454.584L241.26 451.555L246.24 448.525L242.751 441.541C245.673 438.824 248.111 435.543 249.874 431.81L257.58 433.019L258.959 427.356L260.337 421.693L252.939 419.223ZM216.411 436.539C206.222 434.058 199.973 423.786 202.454 413.598C204.935 403.409 215.207 397.16 225.396 399.641C235.586 402.122 241.834 412.394 239.354 422.583C236.871 432.771 226.601 439.02 216.411 436.539Z" fill="#8E9298"/>
<path d="M409.58 455.038H249.201C229.573 455.038 213.662 439.126 213.662 419.499V98.1237C213.662 78.4962 229.573 62.585 249.201 62.585H409.578C429.206 62.585 445.117 78.4962 445.117 98.1237V419.5C445.117 439.126 429.206 455.038 409.58 455.038Z" fill="#2F3F55"/>
<path d="M429.302 409.404H229.478C227.022 409.404 225.031 407.413 225.031 404.957V104.046C225.031 101.591 227.022 99.5996 229.478 99.5996H429.302C431.758 99.5996 433.749 101.591 433.749 104.046V404.957C433.749 407.413 431.758 409.404 429.302 409.404Z" fill="white"/>
<path d="M360.437 87.4297H298.344C296.17 87.4297 294.408 85.6675 294.408 83.4936V83.2515C294.408 81.0776 296.17 79.3154 298.344 79.3154H360.437C362.611 79.3154 364.373 81.0776 364.373 83.2515V83.4936C364.373 85.6675 362.611 87.4297 360.437 87.4297Z" fill="#1B243C"/>
<path d="M343.73 435.72C345.375 427.804 340.291 420.055 332.376 418.411C324.461 416.766 316.711 421.85 315.067 429.765C313.423 437.68 318.506 445.43 326.422 447.074C334.337 448.718 342.086 443.635 343.73 435.72Z" fill="#1B243C"/>
<path d="M269.31 398.307H242.163C239.616 398.307 237.551 396.242 237.551 393.695V366.548C237.551 364 239.616 361.936 242.163 361.936H269.31C271.857 361.936 273.922 364 273.922 366.548V393.695C273.922 396.242 271.857 398.307 269.31 398.307Z" stroke="#8E9298" stroke-width="1.52117" stroke-miterlimit="10"/>
<path d="M318.413 398.307H291.266C288.719 398.307 286.654 396.242 286.654 393.695V366.548C286.654 364 288.719 361.936 291.266 361.936H318.413C320.961 361.936 323.025 364 323.025 366.548V393.695C323.025 396.242 320.961 398.307 318.413 398.307Z" stroke="#FF845E" stroke-width="1.52117" stroke-miterlimit="10"/>
<path d="M367.514 398.307H340.367C337.82 398.307 335.755 396.242 335.755 393.695V366.548C335.755 364 337.82 361.936 340.367 361.936H367.514C370.061 361.936 372.126 364 372.126 366.548V393.695C372.126 396.242 370.061 398.307 367.514 398.307Z" fill="#6ED5DB"/>
<path d="M416.617 398.307H389.469C386.922 398.307 384.857 396.242 384.857 393.695V366.548C384.857 364 386.922 361.936 389.469 361.936H416.617C419.164 361.936 421.229 364 421.229 366.548V393.695C421.229 396.242 419.164 398.307 416.617 398.307Z" stroke="#FFD77B" stroke-width="1.52117" stroke-miterlimit="10"/>
<path d="M269.31 149.857H242.163C239.616 149.857 237.551 147.792 237.551 145.244V118.097C237.551 115.55 239.616 113.485 242.163 113.485H269.31C271.857 113.485 273.922 115.55 273.922 118.097V145.244C273.922 147.792 271.857 149.857 269.31 149.857Z" fill="#8E9298"/>
<path d="M318.413 149.857H291.266C288.719 149.857 286.654 147.792 286.654 145.244V118.097C286.654 115.55 288.719 113.485 291.266 113.485H318.413C320.961 113.485 323.025 115.55 323.025 118.097V145.244C323.025 147.792 320.961 149.857 318.413 149.857Z" fill="#FFD77B"/>
<path d="M367.514 149.857H340.367C337.82 149.857 335.755 147.792 335.755 145.244V118.097C335.755 115.55 337.82 113.485 340.367 113.485H367.514C370.061 113.485 372.126 115.55 372.126 118.097V145.244C372.126 147.792 370.061 149.857 367.514 149.857Z" stroke="#D8E3E0" stroke-width="1.52117" stroke-miterlimit="10" stroke-dasharray="3.04 3.04"/>
<path d="M416.617 149.857H389.469C386.922 149.857 384.857 147.792 384.857 145.244V118.097C384.857 115.55 386.922 113.485 389.469 113.485H416.617C419.164 113.485 421.229 115.55 421.229 118.097V145.244C421.229 147.792 419.164 149.857 416.617 149.857Z" stroke="#8E9298" stroke-width="1.52117" stroke-miterlimit="10"/>
<path d="M318.413 194.348H291.266C288.719 194.348 286.654 192.283 286.654 189.736V162.589C286.654 160.041 288.719 157.977 291.266 157.977H318.413C320.961 157.977 323.025 160.041 323.025 162.589V189.736C323.025 192.283 320.961 194.348 318.413 194.348Z" stroke="#FF845E" stroke-width="1.52117" stroke-miterlimit="10"/>
<path d="M367.827 283.334H340.68C338.133 283.334 336.068 281.269 336.068 278.722V251.575C336.068 249.028 338.133 246.963 340.68 246.963H367.827C370.375 246.963 372.439 249.028 372.439 251.575V278.722C372.439 281.269 370.375 283.334 367.827 283.334Z" stroke="#FFD77B" stroke-width="1.52117" stroke-miterlimit="10"/>
<path d="M318.413 238.842H291.266C288.719 238.842 286.654 236.777 286.654 234.23V207.083C286.654 204.535 288.719 202.471 291.266 202.471H318.413C320.961 202.471 323.025 204.535 323.025 207.083V234.23C323.025 236.777 320.961 238.842 318.413 238.842Z" stroke="#D8E3E0" stroke-width="1.52117" stroke-miterlimit="10" stroke-dasharray="2.99 2.99"/>
<path d="M367.827 328.783H340.68C338.133 328.783 336.068 326.719 336.068 324.171V297.024C336.068 294.477 338.133 292.412 340.68 292.412H367.827C370.375 292.412 372.439 294.477 372.439 297.024V324.171C372.439 326.719 370.375 328.783 367.827 328.783Z" stroke="#D8E3E0" stroke-width="1.52117" stroke-miterlimit="10" stroke-dasharray="2.99 2.99"/>
<path d="M270.563 328.783H243.416C240.868 328.783 238.804 326.719 238.804 324.171V297.024C238.804 294.477 240.868 292.412 243.416 292.412H270.563C273.11 292.412 275.175 294.477 275.175 297.024V324.171C275.175 326.719 273.11 328.783 270.563 328.783Z" stroke="#FFD77B" stroke-width="1.52117" stroke-miterlimit="10" stroke-dasharray="2.99 2.99"/>
<path d="M415.377 328.783H388.23C385.683 328.783 383.618 326.719 383.618 324.171V297.024C383.618 294.477 385.683 292.412 388.23 292.412H415.377C417.925 292.412 419.989 294.477 419.989 297.024V324.171C419.989 326.719 417.925 328.783 415.377 328.783Z" stroke="#6ED5DB" stroke-width="1.52117" stroke-miterlimit="10" stroke-dasharray="2.99 2.99"/>
<path d="M367.514 194.348H340.367C337.82 194.348 335.755 192.283 335.755 189.736V162.589C335.755 160.041 337.82 157.977 340.367 157.977H367.514C370.061 157.977 372.126 160.041 372.126 162.589V189.736C372.126 192.283 370.061 194.348 367.514 194.348Z" fill="#6ED5DB"/>
<path d="M269.31 238.842H242.163C239.616 238.842 237.551 236.777 237.551 234.23V207.083C237.551 204.535 239.616 202.471 242.163 202.471H269.31C271.857 202.471 273.922 204.535 273.922 207.083V234.23C273.922 236.777 271.857 238.842 269.31 238.842Z" stroke="#FFD77B" stroke-width="1.52117" stroke-miterlimit="10"/>
<path d="M416.617 238.842H389.469C386.922 238.842 384.857 236.777 384.857 234.23V207.083C384.857 204.535 386.922 202.471 389.469 202.471H416.617C419.164 202.471 421.229 204.535 421.229 207.083V234.23C421.229 236.777 419.164 238.842 416.617 238.842Z" fill="#FF845E"/>
<path d="M269.31 283.334H242.163C239.616 283.334 237.551 281.269 237.551 278.722V251.575C237.551 249.028 239.616 246.963 242.163 246.963H269.31C271.857 246.963 273.922 249.028 273.922 251.575V278.722C273.922 281.269 271.857 283.334 269.31 283.334Z" fill="#6ED5DB"/>
<path d="M104.464 121.809L103.93 418.785L160.609 418.887L161.143 121.911L104.464 121.809Z" fill="#8E9298"/>
<path d="M121.221 402.258L159.428 402.324" stroke="white" stroke-width="2.31194" stroke-miterlimit="10"/>
<path d="M140.828 391.41L159.448 391.443" stroke="white" stroke-width="2.31194" stroke-miterlimit="10"/>
<path d="M121.258 380.496L159.465 380.563" stroke="white" stroke-width="2.31194" stroke-miterlimit="10"/>
<path d="M140.865 369.646L159.485 369.679" stroke="white" stroke-width="2.31194" stroke-miterlimit="10"/>
<path d="M121.297 358.732L159.503 358.799" stroke="white" stroke-width="2.31194" stroke-miterlimit="10"/>
<path d="M140.904 347.883L159.522 347.915" stroke="white" stroke-width="2.31194" stroke-miterlimit="10"/>
<path d="M121.336 336.969L159.542 337.035" stroke="white" stroke-width="2.31194" stroke-miterlimit="10"/>
<path d="M140.94 326.121L159.56 326.154" stroke="white" stroke-width="2.31194" stroke-miterlimit="10"/>
<path d="M121.373 315.205L159.579 315.273" stroke="white" stroke-width="2.31194" stroke-miterlimit="10"/>
<path d="M140.979 304.359L159.599 304.392" stroke="white" stroke-width="2.31194" stroke-miterlimit="10"/>
<path d="M121.412 293.441L159.618 293.509" stroke="white" stroke-width="2.31194" stroke-miterlimit="10"/>
<path d="M141.018 282.596L159.637 282.628" stroke="white" stroke-width="2.31194" stroke-miterlimit="10"/>
<path d="M121.45 271.678L159.656 271.746" stroke="white" stroke-width="2.31194" stroke-miterlimit="10"/>
<path d="M141.056 260.832L159.675 260.865" stroke="white" stroke-width="2.31194" stroke-miterlimit="10"/>
<path d="M121.488 249.914L159.694 249.982" stroke="white" stroke-width="2.31194" stroke-miterlimit="10"/>
<path d="M141.095 239.068L159.714 239.102" stroke="white" stroke-width="2.31194" stroke-miterlimit="10"/>
<path d="M121.526 228.152L159.734 228.219" stroke="white" stroke-width="2.31194" stroke-miterlimit="10"/>
<path d="M141.133 217.305L159.752 217.337" stroke="white" stroke-width="2.31194" stroke-miterlimit="10"/>
<path d="M121.563 206.389L159.771 206.455" stroke="white" stroke-width="2.31194" stroke-miterlimit="10"/>
<path d="M141.171 195.541L159.79 195.573" stroke="white" stroke-width="2.31194" stroke-miterlimit="10"/>
<path d="M121.603 184.625L159.81 184.691" stroke="white" stroke-width="2.31194" stroke-miterlimit="10"/>
<path d="M141.21 173.777L159.829 173.81" stroke="white" stroke-width="2.31194" stroke-miterlimit="10"/>
<path d="M121.642 162.863L159.849 162.93" stroke="white" stroke-width="2.31194" stroke-miterlimit="10"/>
<path d="M141.247 152.016L159.865 152.048" stroke="white" stroke-width="2.31194" stroke-miterlimit="10"/>
<path d="M121.679 141.098L159.884 141.166" stroke="white" stroke-width="2.31194" stroke-miterlimit="10"/>
<path d="M247.469 264.703L237.413 224.42L37.6999 274.276L47.7561 314.559L247.469 264.703Z" fill="#2D3C64"/>
<path d="M224.125 249.135L66.0146 288.604" stroke="white" stroke-width="2.43621" stroke-miterlimit="10"/>
<path d="M212.934 263.618L81.8682 296.337" stroke="white" stroke-width="2.43621" stroke-miterlimit="10"/>
<path d="M207.347 241.238L76.2803 273.957" stroke="white" stroke-width="2.43621" stroke-miterlimit="10"/>
<path d="M247.462 264.707L289.878 235.053C291.699 233.78 290.989 230.93 288.782 230.663L237.405 224.423L247.462 264.707Z" fill="#455C7D"/>
<path d="M271.931 228.617L275.966 244.781" stroke="#2F3F55" stroke-width="2.43621" stroke-miterlimit="10"/>
<path d="M621.953 373.831H476.939V422.781H621.953V373.831Z" fill="white"/>
<path d="M205.034 8.80078H60.0205V57.7507H205.034V8.80078Z" fill="white"/>
<path d="M495.466 392.66L489.335 390.208V389.278L495.466 386.826V387.7L489.702 389.969V389.518L495.466 391.787V392.66ZM499.767 391.716C499.767 391.322 499.828 390.983 499.95 390.702C500.082 390.42 500.241 390.171 500.429 389.955C500.627 389.738 500.833 389.536 501.049 389.349C501.275 389.161 501.486 388.973 501.684 388.785C501.881 388.588 502.041 388.376 502.163 388.151C502.285 387.916 502.346 387.643 502.346 387.333C502.346 386.826 502.149 386.412 501.754 386.093C501.359 385.774 500.8 385.614 500.077 385.614C499.476 385.614 498.954 385.713 498.513 385.91C498.071 386.098 497.695 386.38 497.385 386.755L496.638 386.192C497.014 385.722 497.498 385.36 498.09 385.107C498.682 384.853 499.368 384.726 500.147 384.726C500.805 384.726 501.373 384.825 501.853 385.022C502.341 385.219 502.717 385.501 502.98 385.868C503.253 386.234 503.389 386.671 503.389 387.178C503.389 387.582 503.323 387.93 503.191 388.221C503.069 388.503 502.91 388.757 502.712 388.982C502.524 389.198 502.318 389.405 502.092 389.602C501.876 389.79 501.669 389.983 501.472 390.18C501.275 390.377 501.115 390.598 500.993 390.842C500.871 391.087 500.81 391.378 500.81 391.716H499.767ZM500.288 394.746C500.091 394.746 499.917 394.676 499.767 394.535C499.626 394.385 499.555 394.211 499.555 394.013C499.555 393.807 499.626 393.638 499.767 393.506C499.917 393.365 500.091 393.295 500.288 393.295C500.504 393.295 500.683 393.365 500.824 393.506C500.965 393.638 501.035 393.807 501.035 394.013C501.035 394.211 500.965 394.385 500.824 394.535C500.683 394.676 500.504 394.746 500.288 394.746ZM509.666 394.746C509.027 394.746 508.449 394.601 507.932 394.309C507.415 394.009 507.002 393.581 506.692 393.027C506.391 392.463 506.241 391.777 506.241 390.969C506.241 390.161 506.391 389.48 506.692 388.926C506.993 388.362 507.401 387.935 507.918 387.643C508.435 387.352 509.017 387.206 509.666 387.206C510.37 387.206 511 387.366 511.554 387.686C512.118 387.996 512.559 388.437 512.879 389.01C513.198 389.574 513.358 390.227 513.358 390.969C513.358 391.721 513.198 392.379 512.879 392.942C512.559 393.506 512.118 393.948 511.554 394.267C511 394.587 510.37 394.746 509.666 394.746ZM505.846 397.41V387.277H506.805V389.504L506.706 390.983L506.847 392.477V397.41H505.846ZM509.595 393.858C510.121 393.858 510.591 393.741 511.004 393.506C511.418 393.262 511.747 392.924 511.991 392.491C512.235 392.05 512.357 391.542 512.357 390.969C512.357 390.396 512.235 389.894 511.991 389.461C511.747 389.029 511.418 388.691 511.004 388.447C510.591 388.202 510.121 388.08 509.595 388.08C509.069 388.08 508.595 388.202 508.172 388.447C507.758 388.691 507.43 389.029 507.185 389.461C506.95 389.894 506.833 390.396 506.833 390.969C506.833 391.542 506.95 392.05 507.185 392.491C507.43 392.924 507.758 393.262 508.172 393.506C508.595 393.741 509.069 393.858 509.595 393.858ZM519.175 387.206C519.776 387.206 520.302 387.324 520.753 387.559C521.214 387.784 521.571 388.132 521.824 388.602C522.087 389.071 522.219 389.663 522.219 390.377V394.676H521.218V390.476C521.218 389.696 521.021 389.109 520.626 388.714C520.241 388.31 519.696 388.108 518.992 388.108C518.465 388.108 518.005 388.216 517.61 388.433C517.225 388.639 516.925 388.945 516.708 389.349C516.502 389.743 516.398 390.222 516.398 390.786V394.676H515.398V384.219H516.398V389.306L516.201 388.926C516.436 388.39 516.812 387.972 517.329 387.671C517.845 387.361 518.461 387.206 519.175 387.206ZM528.741 394.746C528.102 394.746 527.524 394.601 527.007 394.309C526.491 394.009 526.077 393.581 525.767 393.027C525.467 392.463 525.316 391.777 525.316 390.969C525.316 390.161 525.467 389.48 525.767 388.926C526.068 388.362 526.477 387.935 526.993 387.643C527.51 387.352 528.093 387.206 528.741 387.206C529.446 387.206 530.075 387.366 530.629 387.686C531.193 387.996 531.635 388.437 531.954 389.01C532.274 389.574 532.433 390.227 532.433 390.969C532.433 391.721 532.274 392.379 531.954 392.942C531.635 393.506 531.193 393.948 530.629 394.267C530.075 394.587 529.446 394.746 528.741 394.746ZM524.922 397.41V387.277H525.88V389.504L525.781 390.983L525.922 392.477V397.41H524.922ZM528.67 393.858C529.197 393.858 529.666 393.741 530.08 393.506C530.493 393.262 530.822 392.924 531.066 392.491C531.311 392.05 531.433 391.542 531.433 390.969C531.433 390.396 531.311 389.894 531.066 389.461C530.822 389.029 530.493 388.691 530.08 388.447C529.666 388.202 529.197 388.08 528.67 388.08C528.144 388.08 527.67 388.202 527.247 388.447C526.834 388.691 526.505 389.029 526.261 389.461C526.026 389.894 525.908 390.396 525.908 390.969C525.908 391.542 526.026 392.05 526.261 392.491C526.505 392.924 526.834 393.262 527.247 393.506C527.67 393.741 528.144 393.858 528.67 393.858Z" fill="#1B243C"/>
<path d="M78.6747 26.5765L72.5441 24.1243V23.1941L78.6747 20.7419V21.6157L72.9106 23.8847V23.4337L78.6747 25.7027V26.5765ZM84.8361 21.1224C85.4374 21.1224 85.9636 21.2399 86.4146 21.4748C86.8749 21.7002 87.232 22.0479 87.4856 22.5176C87.7487 22.9874 87.8803 23.5793 87.8803 24.2934V28.5918H86.8796V24.392C86.8796 23.6122 86.6823 23.025 86.2877 22.6304C85.9025 22.2264 85.3576 22.0244 84.6529 22.0244C84.1268 22.0244 83.6664 22.1324 83.2718 22.3485C82.8866 22.5552 82.5859 22.8606 82.3698 23.2646C82.1631 23.6592 82.0598 24.1384 82.0598 24.7021V28.5918H81.0592V18.1347H82.0598V23.2223L81.8625 22.8418C82.0974 22.3062 82.4732 21.8881 82.9899 21.5875C83.5067 21.2774 84.1221 21.1224 84.8361 21.1224ZM92.9225 28.6623C92.2273 28.6623 91.6917 28.4744 91.3159 28.0985C90.9401 27.7227 90.7522 27.1919 90.7522 26.506V19.5581H91.7528V26.4496C91.7528 26.8818 91.8608 27.2154 92.0769 27.4503C92.3024 27.6851 92.6219 27.8026 93.0353 27.8026C93.4769 27.8026 93.8433 27.6757 94.1345 27.4221L94.4869 28.1408C94.2896 28.3193 94.05 28.4509 93.7681 28.5354C93.4956 28.62 93.2138 28.6623 92.9225 28.6623ZM89.4274 22.0244V21.1929H94.0077V22.0244H89.4274ZM105.554 21.1224C106.155 21.1224 106.676 21.2399 107.118 21.4748C107.569 21.7002 107.916 22.0479 108.161 22.5176C108.414 22.9874 108.541 23.5793 108.541 24.2934V28.5918H107.541V24.392C107.541 23.6122 107.353 23.025 106.977 22.6304C106.611 22.2264 106.089 22.0244 105.413 22.0244C104.905 22.0244 104.464 22.1324 104.088 22.3485C103.721 22.5552 103.435 22.8606 103.228 23.2646C103.031 23.6592 102.932 24.1384 102.932 24.7021V28.5918H101.932V24.392C101.932 23.6122 101.744 23.025 101.368 22.6304C100.992 22.2264 100.466 22.0244 99.7894 22.0244C99.2915 22.0244 98.8546 22.1324 98.4787 22.3485C98.1029 22.5552 97.8117 22.8606 97.605 23.2646C97.4077 23.6592 97.309 24.1384 97.309 24.7021V28.5918H96.3084V21.1929H97.2667V23.1941L97.1117 22.8418C97.3372 22.3062 97.6989 21.8881 98.1969 21.5875C98.7042 21.2774 99.3009 21.1224 99.9867 21.1224C100.71 21.1224 101.326 21.3056 101.833 21.6721C102.34 22.0291 102.669 22.5693 102.819 23.2928L102.425 23.1377C102.641 22.5364 103.021 22.0526 103.566 21.6861C104.121 21.3103 104.783 21.1224 105.554 21.1224ZM111.255 28.5918V18.1347H112.255V28.5918H111.255ZM114.631 26.5765V25.7027L120.395 23.4337V23.8847L114.631 21.6157V20.7419L120.761 23.1941V24.1243L114.631 26.5765Z" fill="#1B243C"/>
<path d="M610.386 390.222H545.392V394.772H610.386V390.222Z" fill="#1B243C"/>
<path d="M610.384 407.128H488.348V411.678H610.384V407.128Z" fill="#1B243C"/>
<path d="M194.517 22.5488H134.086V27.0989H194.517V22.5488Z" fill="#1B243C"/>
<path d="M194.516 39.4551H72.4795V44.0052H194.516V39.4551Z" fill="#1B243C"/>
<path d="M585.387 37.7117L426.299 119.491C417.091 108.682 401.37 105.178 388.194 111.951L347.506 132.866C352.35 142.288 363.913 146 373.335 141.156L383.315 136.026C392.546 131.281 403.875 134.918 408.621 144.148C413.366 153.38 409.73 164.71 400.5 169.455L391.498 174.081C381.536 179.203 377.612 191.43 382.733 201.392L423.421 180.476C436.596 173.704 442.897 158.88 439.465 145.101L598.552 63.3224C605.624 59.6873 608.41 51.0063 604.774 43.9339C601.14 36.8616 592.459 34.0752 585.387 37.7117Z" fill="#8E9298"/>
<path d="M445.244 120.974L578.253 52.6006" stroke="white" stroke-width="2.43621" stroke-miterlimit="10"/>
<path d="M449.908 130.046L582.917 61.6719" stroke="white" stroke-width="2.43621" stroke-miterlimit="10"/>
<path d="M627.975 312.944L627.846 312.919C622.608 311.913 617.626 309.844 613.278 306.753C603.942 300.118 590.002 294.415 573.918 291.323C557.833 288.231 542.773 288.36 531.642 291.062C526.459 292.321 521.065 292.395 515.827 291.388L487.263 285.898C484.242 285.318 481.323 287.295 480.743 290.317L477.726 306.014C477.146 309.035 479.124 311.954 482.145 312.534L510.58 317.999C515.84 319.01 520.842 321.096 525.203 324.204C534.538 330.86 548.504 336.58 564.625 339.68C580.746 342.779 595.838 342.642 606.975 339.922C612.179 338.651 617.596 338.568 622.856 339.579L622.859 339.562C626.236 340.211 629.499 338 630.149 334.623L632.914 320.234C633.562 316.857 631.351 313.594 627.975 312.944Z" fill="#2D3C64"/>
<path d="M480.268 292.78L397.945 276.955C398.025 275.3 396.981 273.766 395.349 273.281L374.031 266.949C371.962 266.335 369.813 267.64 369.406 269.761L366.691 283.885C366.283 286.005 367.794 288.014 369.943 288.21L392.089 290.232C393.783 290.387 395.322 289.348 395.861 287.782L478.185 303.607L480.268 292.78Z" fill="#8E9298"/>
<path d="M536.133 298.09L602.802 310.905" stroke="white" stroke-width="2.43621" stroke-miterlimit="10"/>
<path d="M534.087 308.738L600.756 321.553" stroke="white" stroke-width="2.43621" stroke-miterlimit="10"/>
<path d="M532.04 319.386L598.709 332.201" stroke="white" stroke-width="2.43621" stroke-miterlimit="10"/>
</svg>
